<mxfile host="app.diagrams.net" modified="2021-10-09T23:25:49.202Z" agent="5.0 (Windows NT 10.0; Win64; x64) AppleWebKit/537.36 (KHTML, like Gecko) Chrome/94.0.4606.71 Safari/537.36" etag="xqUdlAr-xmFFOJMvMXHW" version="15.5.0" type="github">
  <diagram id="1AdJATT--EIOiy0C1U03" name="Page-1">
    <mxGraphModel dx="898" dy="481" grid="1" gridSize="10" guides="1" tooltips="1" connect="1" arrows="1" fold="1" page="1" pageScale="1" pageWidth="827" pageHeight="1169" math="0" shadow="0">
      <root>
        <mxCell id="0" />
        <mxCell id="1" parent="0" />
        <mxCell id="T38tA_bC7K2ESA-y2CWt-4" style="edgeStyle=orthogonalEdgeStyle;rounded=0;orthogonalLoop=1;jettySize=auto;html=1;entryX=0.5;entryY=0;entryDx=0;entryDy=0;fontSize=20;" edge="1" parent="1" source="T38tA_bC7K2ESA-y2CWt-2" target="T38tA_bC7K2ESA-y2CWt-3">
          <mxGeometry relative="1" as="geometry" />
        </mxCell>
        <mxCell id="T38tA_bC7K2ESA-y2CWt-2" value="&lt;p style=&quot;line-height: 1.3 ; font-size: 20px&quot;&gt;0&lt;/p&gt;" style="ellipse;whiteSpace=wrap;html=1;aspect=fixed;" vertex="1" parent="1">
          <mxGeometry x="255" y="180" width="60" height="60" as="geometry" />
        </mxCell>
        <mxCell id="T38tA_bC7K2ESA-y2CWt-9" style="edgeStyle=orthogonalEdgeStyle;rounded=0;orthogonalLoop=1;jettySize=auto;html=1;entryX=1;entryY=0.5;entryDx=0;entryDy=0;fontSize=20;" edge="1" parent="1" source="T38tA_bC7K2ESA-y2CWt-3" target="T38tA_bC7K2ESA-y2CWt-8">
          <mxGeometry relative="1" as="geometry" />
        </mxCell>
        <mxCell id="T38tA_bC7K2ESA-y2CWt-27" style="edgeStyle=orthogonalEdgeStyle;rounded=0;orthogonalLoop=1;jettySize=auto;html=1;fontSize=20;entryX=1;entryY=0.5;entryDx=0;entryDy=0;" edge="1" parent="1" source="T38tA_bC7K2ESA-y2CWt-3" target="T38tA_bC7K2ESA-y2CWt-24">
          <mxGeometry relative="1" as="geometry">
            <mxPoint x="190" y="490" as="targetPoint" />
            <Array as="points">
              <mxPoint x="210" y="410" />
              <mxPoint x="210" y="499" />
            </Array>
          </mxGeometry>
        </mxCell>
        <mxCell id="T38tA_bC7K2ESA-y2CWt-31" style="edgeStyle=orthogonalEdgeStyle;rounded=0;orthogonalLoop=1;jettySize=auto;html=1;entryX=1;entryY=0.5;entryDx=0;entryDy=0;fontSize=20;" edge="1" parent="1" source="T38tA_bC7K2ESA-y2CWt-3" target="T38tA_bC7K2ESA-y2CWt-28">
          <mxGeometry relative="1" as="geometry">
            <Array as="points">
              <mxPoint x="210" y="320" />
              <mxPoint x="210" y="270" />
            </Array>
          </mxGeometry>
        </mxCell>
        <mxCell id="T38tA_bC7K2ESA-y2CWt-3" value="&lt;p style=&quot;line-height: 1.3 ; font-size: 20px&quot;&gt;1&lt;/p&gt;" style="ellipse;whiteSpace=wrap;html=1;aspect=fixed;" vertex="1" parent="1">
          <mxGeometry x="230" y="310" width="110" height="110" as="geometry" />
        </mxCell>
        <mxCell id="T38tA_bC7K2ESA-y2CWt-6" value="view notificacions&lt;br&gt;" style="text;html=1;strokeColor=none;fillColor=none;align=center;verticalAlign=middle;whiteSpace=wrap;rounded=0;fontSize=20;" vertex="1" parent="1">
          <mxGeometry x="320" y="255" width="60" height="30" as="geometry" />
        </mxCell>
        <mxCell id="T38tA_bC7K2ESA-y2CWt-7" value="&lt;div style=&quot;text-align: left&quot;&gt;&lt;span&gt;0 - Start app&lt;/span&gt;&lt;/div&gt;&lt;div style=&quot;text-align: left&quot;&gt;1 - Menu&lt;/div&gt;&lt;div style=&quot;text-align: left&quot;&gt;2 - add new Task&lt;/div&gt;&lt;div style=&quot;text-align: left&quot;&gt;3 - change parameters in Tasks&lt;/div&gt;&lt;div style=&quot;text-align: left&quot;&gt;4 - delete existing Task&lt;br&gt;5 - clear Task list&lt;/div&gt;&lt;div style=&quot;text-align: left&quot;&gt;6 - view calendar&lt;/div&gt;&lt;div style=&quot;text-align: left&quot;&gt;7 - save &amp;amp; exit&lt;/div&gt;&lt;div style=&quot;text-align: left&quot;&gt;&lt;br&gt;&lt;/div&gt;" style="text;html=1;strokeColor=none;fillColor=none;align=center;verticalAlign=middle;whiteSpace=wrap;rounded=0;fontSize=20;" vertex="1" parent="1">
          <mxGeometry x="520" y="80" width="250" height="220" as="geometry" />
        </mxCell>
        <mxCell id="T38tA_bC7K2ESA-y2CWt-11" style="edgeStyle=orthogonalEdgeStyle;rounded=0;orthogonalLoop=1;jettySize=auto;html=1;fontSize=20;" edge="1" parent="1" source="T38tA_bC7K2ESA-y2CWt-8" target="T38tA_bC7K2ESA-y2CWt-3">
          <mxGeometry relative="1" as="geometry" />
        </mxCell>
        <mxCell id="T38tA_bC7K2ESA-y2CWt-8" value="&lt;p style=&quot;line-height: 1.3 ; font-size: 20px&quot;&gt;2&lt;/p&gt;" style="ellipse;whiteSpace=wrap;html=1;aspect=fixed;" vertex="1" parent="1">
          <mxGeometry x="110" y="335" width="60" height="60" as="geometry" />
        </mxCell>
        <mxCell id="T38tA_bC7K2ESA-y2CWt-14" value="&lt;p style=&quot;line-height: 1.3 ; font-size: 20px&quot;&gt;3&lt;/p&gt;" style="ellipse;whiteSpace=wrap;html=1;aspect=fixed;" vertex="1" parent="1">
          <mxGeometry x="255" y="490" width="60" height="60" as="geometry" />
        </mxCell>
        <mxCell id="T38tA_bC7K2ESA-y2CWt-16" value="" style="endArrow=classic;startArrow=classic;html=1;rounded=0;fontSize=20;edgeStyle=orthogonalEdgeStyle;entryX=0.5;entryY=1;entryDx=0;entryDy=0;exitX=0.5;exitY=0;exitDx=0;exitDy=0;" edge="1" parent="1" source="T38tA_bC7K2ESA-y2CWt-14" target="T38tA_bC7K2ESA-y2CWt-3">
          <mxGeometry width="50" height="50" relative="1" as="geometry">
            <mxPoint x="310" y="430" as="sourcePoint" />
            <mxPoint x="320" y="380" as="targetPoint" />
          </mxGeometry>
        </mxCell>
        <mxCell id="T38tA_bC7K2ESA-y2CWt-26" style="edgeStyle=orthogonalEdgeStyle;rounded=0;orthogonalLoop=1;jettySize=auto;html=1;entryX=0;entryY=0.5;entryDx=0;entryDy=0;fontSize=20;" edge="1" parent="1" source="T38tA_bC7K2ESA-y2CWt-18" target="T38tA_bC7K2ESA-y2CWt-19">
          <mxGeometry relative="1" as="geometry" />
        </mxCell>
        <mxCell id="T38tA_bC7K2ESA-y2CWt-18" value="&lt;p style=&quot;line-height: 1.3 ; font-size: 20px&quot;&gt;4&lt;/p&gt;" style="ellipse;whiteSpace=wrap;html=1;aspect=fixed;" vertex="1" parent="1">
          <mxGeometry x="414" y="335" width="60" height="60" as="geometry" />
        </mxCell>
        <mxCell id="T38tA_bC7K2ESA-y2CWt-23" style="edgeStyle=orthogonalEdgeStyle;rounded=0;orthogonalLoop=1;jettySize=auto;html=1;entryX=1;entryY=1;entryDx=0;entryDy=0;fontSize=20;" edge="1" parent="1" source="T38tA_bC7K2ESA-y2CWt-19" target="T38tA_bC7K2ESA-y2CWt-3">
          <mxGeometry relative="1" as="geometry">
            <Array as="points">
              <mxPoint x="390" y="510" />
              <mxPoint x="390" y="430" />
              <mxPoint x="324" y="430" />
            </Array>
          </mxGeometry>
        </mxCell>
        <mxCell id="T38tA_bC7K2ESA-y2CWt-19" value="&lt;p style=&quot;line-height: 1.3 ; font-size: 20px&quot;&gt;5&lt;/p&gt;" style="ellipse;whiteSpace=wrap;html=1;aspect=fixed;direction=south;" vertex="1" parent="1">
          <mxGeometry x="414" y="490" width="60" height="60" as="geometry" />
        </mxCell>
        <mxCell id="T38tA_bC7K2ESA-y2CWt-20" value="" style="endArrow=classic;startArrow=classic;html=1;rounded=0;fontSize=20;edgeStyle=orthogonalEdgeStyle;entryX=1;entryY=0.5;entryDx=0;entryDy=0;exitX=0;exitY=0.5;exitDx=0;exitDy=0;" edge="1" parent="1" source="T38tA_bC7K2ESA-y2CWt-18" target="T38tA_bC7K2ESA-y2CWt-3">
          <mxGeometry width="50" height="50" relative="1" as="geometry">
            <mxPoint x="320" y="430" as="sourcePoint" />
            <mxPoint x="320" y="380" as="targetPoint" />
            <Array as="points" />
          </mxGeometry>
        </mxCell>
        <mxCell id="T38tA_bC7K2ESA-y2CWt-24" value="&lt;p style=&quot;line-height: 1.3 ; font-size: 20px&quot;&gt;6&lt;/p&gt;" style="ellipse;whiteSpace=wrap;html=1;aspect=fixed;" vertex="1" parent="1">
          <mxGeometry x="110" y="470" width="60" height="60" as="geometry" />
        </mxCell>
        <mxCell id="T38tA_bC7K2ESA-y2CWt-28" value="&lt;p style=&quot;line-height: 1.3 ; font-size: 20px&quot;&gt;7&lt;/p&gt;" style="ellipse;whiteSpace=wrap;html=1;aspect=fixed;" vertex="1" parent="1">
          <mxGeometry x="110" y="240" width="60" height="60" as="geometry" />
        </mxCell>
      </root>
    </mxGraphModel>
  </diagram>
</mxfile>
